# xmcd CD database file generated by Grip 3.2.0
# 
# Track frame offsets:
#       150
#       10217
#       33117
#       57098
#       75733
#       98137
#       123114
#       141272
#       161349
#       176825
#       205543
#       222499
#       245985
# 
# Disc length: 3435 seconds
# 
# Revision: 3
# Processed by: cddbd v1.5.2PL0 Copyright (c) Steve Scherf et al.
# Submitted via: Grip 3.2.0
# 
DISCID=ac0d690d
DTITLE=Joe Henry - Blood From Stars
DYEAR=2009
DGENRE=Alternative
TTITLE0=Prelude: Light No Lamp
TTITLE1=The Man I Keep Hid
TTITLE2=Channel
TTITLE3=This Is My Favorite Cage
TTITLE4=Death to the Storm
TTITLE5=All Blues Hail Mary
TTITLE6=Bellwether
TTITLE7=Progress of Love
TTITLE8=Over Her Shoulder
TTITLE9=Suit On A Frame
TTITLE10=Truce
TTITLE11=Stars
TTITLE12=Coda: Light No Lamp
EXTD=
EXTT0=
EXTT1=
EXTT2=
EXTT3=
EXTT4=
EXTT5=
EXTT6=
EXTT7=
EXTT8=
EXTT9=
EXTT10=
EXTT11=
EXTT12=
PLAYORDER=
